<?xml version="1.0" encoding="UTF-8" standalone="no"?>
<svg
   width="16"
   height="16"
   fill="currentColor"
   class="bi bi-hospital-fill"
   viewBox="0 0 16 16"
   version="1.1"
   id="svg4"
   sodipodi:docname="favicon.svg"
   xml:space="preserve"
   inkscape:export-filename="favicon3.svg"
   inkscape:export-xdpi="96"
   inkscape:export-ydpi="96"
   inkscape:version="1.2.1 (9c6d41e, 2022-07-14)"
   xmlns:inkscape="http://www.inkscape.org/namespaces/inkscape"
   xmlns:sodipodi="http://sodipodi.sourceforge.net/DTD/sodipodi-0.dtd"
   xmlns="http://www.w3.org/2000/svg"
   xmlns:svg="http://www.w3.org/2000/svg"><defs
     id="defs8" /><sodipodi:namedview
     id="namedview6"
     pagecolor="#ffffff"
     bordercolor="#000000"
     borderopacity="0.25"
     inkscape:showpageshadow="2"
     inkscape:pageopacity="0.0"
     inkscape:pagecheckerboard="0"
     inkscape:deskcolor="#d1d1d1"
     showgrid="false"
     inkscape:zoom="15.926354"
     inkscape:cx="4.1126801"
     inkscape:cy="7.9428096"
     inkscape:window-width="1470"
     inkscape:window-height="827"
     inkscape:window-x="0"
     inkscape:window-y="37"
     inkscape:window-maximized="1"
     inkscape:current-layer="layer1" /><g
     inkscape:groupmode="layer"
     id="layer1"
     inkscape:label="Layer 1"><circle
       style="display:inline;fill:#ffffff;fill-opacity:1;stroke-width:1.027;stroke-dasharray:none"
       id="path913"
       cx="8"
       cy="8"
       r="8"
       inkscape:label="White" /><circle
       style="display:inline;fill:#000000;fill-opacity:1;stroke-width:1.02232"
       id="path3627"
       cx="8"
       cy="8"
       r="7.107914"
       inkscape:label="Black" /><g
       id="g266"
       transform="matrix(0.02354339,0,0,0.02354339,1.511076,2.085747)"
       inkscape:label="Kuma"
       style="display:inline;fill:#ffffff;fill-opacity:1;stroke:none;stroke-width:0;stroke-dasharray:none"><path
         style="display:inline;fill:#ffffff;fill-opacity:1;stroke:none;stroke-width:0;stroke-linecap:round;stroke-linejoin:round;stroke-miterlimit:4;stroke-dasharray:none;stroke-opacity:0.29902"
         d="m 410.02088,547.43916 c -7.47283,-11.94437 -19.04275,-49.22038 -57.19422,-72.0706 -31.2368,-18.70878 -68.13567,-36.4954 -104.1132,-43.39155 -50.16972,-9.61651 -101.42328,-17.01221 -147.95601,-9.04433 -33.903213,5.80531 -61.724735,33.49843 -71.92064,39.01299 61.261022,62.04016 89.59673,86.12201 146.64713,110.73346 35.11809,-5.8397 103.4995,-5.64829 234.53694,-25.23997 z"
         id="path55984"
         sodipodi:nodetypes="csssccc" /><path
         id="path1576"
         style="display:inline;opacity:1;fill:#ffffff;fill-opacity:1;stroke:none;stroke-width:0;stroke-miterlimit:4;stroke-dasharray:none;stroke-opacity:1"
         d="M 413.72951,62.016201 A 50.03515,57.828129 0 0 0 368.59312,95.970156 236.01585,236.01585 0 0 1 440.53927,168.33726 50.03515,57.828129 0 0 0 463.76504,119.8452 50.03515,57.828129 0 0 0 413.72951,62.016201 Z" /><path
         id="path1472"
         style="display:inline;opacity:1;fill:#ffffff;fill-opacity:1;stroke:none;stroke-width:0;stroke-miterlimit:4;stroke-dasharray:none;stroke-opacity:1"
         d="M 180.75542,34.049456 A 62.150576,56.584166 0 0 0 118.60519,90.632248 62.150576,56.584166 0 0 0 137.41935,131.07166 236.01585,236.01585 0 0 1 240.38472,74.74093 62.150576,56.584166 0 0 0 180.75542,34.049456 Z" /><circle
         style="display:inline;opacity:1;fill:#ffffff;fill-opacity:1;fill-rule:evenodd;stroke:none;stroke-width:0;stroke-miterlimit:4;stroke-dasharray:none;stroke-opacity:0"
         id="path135"
         cx="275.20001"
         cy="263.03104"
         r="193.82857" /></g></g></svg>
