<?xml version="1.0" encoding="UTF-8" standalone="no"?>
<svg
   height="24"
   viewBox="0 96 960 960"
   width="24"
   version="1.1"
   id="svg4"
   sodipodi:docname="sentiment_neutral_FILL1_wght700_GRAD0_opsz24.svg"
   inkscape:export-filename="sentiment_neutral_FILL1_wght700_GRAD0_opsz24.svg"
   inkscape:export-xdpi="96"
   inkscape:export-ydpi="96"
   inkscape:version="1.2.1 (9c6d41e, 2022-07-14)"
   xmlns:inkscape="http://www.inkscape.org/namespaces/inkscape"
   xmlns:sodipodi="http://sodipodi.sourceforge.net/DTD/sodipodi-0.dtd"
   xmlns="http://www.w3.org/2000/svg"
   xmlns:svg="http://www.w3.org/2000/svg">
  <defs
     id="defs8" />
  <sodipodi:namedview
     id="namedview6"
     pagecolor="#ffffff"
     bordercolor="#000000"
     borderopacity="0.25"
     inkscape:showpageshadow="2"
     inkscape:pageopacity="0.0"
     inkscape:pagecheckerboard="0"
     inkscape:deskcolor="#d1d1d1"
     showgrid="false"
     inkscape:zoom="9.8333333"
     inkscape:cx="12.050847"
     inkscape:cy="12.050847"
     inkscape:window-width="1470"
     inkscape:window-height="827"
     inkscape:window-x="0"
     inkscape:window-y="37"
     inkscape:window-maximized="1"
     inkscape:current-layer="svg4" />
  <path
     d="m 611.977,613.15254 c 19.34867,0 35.523,-6.42233 48.523,-19.267 7.61395,-7.52258 12.9982,-16.21158 16.15274,-26.067 2.23151,-6.97165 3.34726,-14.52698 3.34726,-22.666 0,-19.64467 -6.42233,-35.889 -19.267,-48.733 -12.844,-12.84467 -29.08833,-19.267 -48.733,-19.267 -19.35533,0 -35.361,6.42233 -48.017,19.267 -12.65533,12.844 -18.983,29.08833 -18.983,48.733 0,19.64467 6.32567,35.889 18.977,48.733 12.65067,12.84467 28.65067,19.267 48,19.267 z m -263.977,0 c 19.35533,0 35.361,-6.42233 48.017,-19.267 12.65533,-12.844 18.983,-29.08833 18.983,-48.733 0,-19.64467 -6.32567,-35.889 -18.977,-48.733 -12.65067,-12.84467 -28.65067,-19.267 -48,-19.267 -19.34867,0 -35.523,6.42233 -48.523,19.267 -13,12.844 -19.5,29.08833 -19.5,48.733 0,19.64467 6.42233,35.889 19.267,48.733 12.844,12.84467 29.08833,19.267 48.733,19.267 z M 480,1010 C 419.33333,1010 362.671,998.63867 310.013,975.916 257.35433,953.194 211.54867,922.35667 172.596,883.404 133.64333,844.45133 102.806,798.64567 80.084,745.987 57.361333,693.329 46,636.66667 46,576 46,515.33333 57.361333,458.671 80.084,406.013 c 22.722,-52.65867 53.55933,-98.46433 92.512,-137.417 38.95267,-38.95267 84.75833,-69.79 137.417,-92.512 C 362.671,153.36133 419.33333,142 480,142 c 60.66667,0 117.329,11.36133 169.987,34.084 52.65867,22.722 98.46433,53.55933 137.417,92.512 38.95267,38.95267 69.79,84.75833 92.512,137.417 C 902.63867,458.671 914,515.33333 914,576 c 0,60.66667 -11.36133,117.329 -34.084,169.987 -22.722,52.65867 -53.55933,98.46433 -92.512,137.417 -38.95267,38.95267 -84.75833,69.79 -137.417,92.512 C 597.329,998.63867 540.66667,1010 480,1010 Z"
     id="path2"
     sodipodi:nodetypes="scsscssscsssscscscsscscscscscscscscs"
     style="fill:#ca5955;fill-opacity:1" />
  <path
     style="fill:#f5e1b4;fill-opacity:1;stroke-width:91.3187"
     d="m 61.016955,116.33898 69.650035,250.74009 c 85.62988,22.5304 146.09865,-16.09976 157.87336,-116.08339 z"
     id="path1108"
     sodipodi:nodetypes="cccc" />
  <path
     style="fill:#f5e1b4;fill-opacity:1;stroke-width:91.3187"
     d="m 899.0034,116.33898 -69.65,250.74009 C 743.7235,389.60947 683.25471,350.97931 671.48,250.99568 Z"
     id="path1108-5"
     sodipodi:nodetypes="cccc" />
</svg>
