<?xml version="1.0" encoding="UTF-8" standalone="no"?>
<svg
   height="24"
   viewBox="0 96 960 960"
   width="24"
   version="1.1"
   id="svg4"
   sodipodi:docname="sentiment_neutral_FILL1_wght700_GRAD0_opsz24.svg"
   inkscape:export-filename="sentiment_neutral_FILL1_wght700_GRAD0_opsz24.svg"
   inkscape:export-xdpi="96"
   inkscape:export-ydpi="96"
   inkscape:version="1.2.1 (9c6d41e, 2022-07-14)"
   xmlns:inkscape="http://www.inkscape.org/namespaces/inkscape"
   xmlns:sodipodi="http://sodipodi.sourceforge.net/DTD/sodipodi-0.dtd"
   xmlns="http://www.w3.org/2000/svg"
   xmlns:svg="http://www.w3.org/2000/svg">
  <defs
     id="defs8">
    <inkscape:path-effect
       effect="mirror_symmetry"
       start_point="315.03771,203.47497"
       end_point="315.03771,429.50542"
       center_point="315.03771,316.49019"
       id="path-effect6278"
       is_visible="true"
       lpeversion="1.2"
       lpesatellites=""
       mode="vertical"
       discard_orig_path="false"
       fuse_paths="false"
       oposite_fuse="false"
       split_items="false"
       split_open="false"
       link_styles="false" />
    <inkscape:path-effect
       effect="mirror_symmetry"
       start_point="471.86441,91.932203"
       end_point="471.86441,1051.9322"
       center_point="471.86441,571.9322"
       id="path-effect5931"
       is_visible="true"
       lpeversion="1.2"
       lpesatellites=""
       mode="vertical"
       discard_orig_path="false"
       fuse_paths="false"
       oposite_fuse="false"
       split_items="false"
       split_open="false"
       link_styles="false" />
    <inkscape:path-effect
       effect="mirror_symmetry"
       start_point="438.04,500.52237"
       end_point="433.44377,624.30518"
       center_point="433.44377,562.41377"
       id="path-effect5929"
       is_visible="true"
       lpeversion="1.2"
       lpesatellites=""
       mode="free"
       discard_orig_path="false"
       fuse_paths="false"
       oposite_fuse="false"
       split_items="false"
       split_open="false"
       link_styles="false" />
  </defs>
  <sodipodi:namedview
     id="namedview6"
     pagecolor="#ffffff"
     bordercolor="#000000"
     borderopacity="0.25"
     inkscape:showpageshadow="2"
     inkscape:pageopacity="0.0"
     inkscape:pagecheckerboard="0"
     inkscape:deskcolor="#d1d1d1"
     showgrid="false"
     inkscape:zoom="9.8333333"
     inkscape:cx="12.050847"
     inkscape:cy="12.050847"
     inkscape:window-width="1470"
     inkscape:window-height="827"
     inkscape:window-x="0"
     inkscape:window-y="37"
     inkscape:window-maximized="1"
     inkscape:current-layer="svg4" />
  <path
     d="m 480,957.11864 c -53.27465,0 -103.03288,-9.97699 -149.27469,-29.93098 -46.2424,-19.95341 -86.4668,-47.03332 -120.67323,-81.23974 C 175.84566,811.74149 148.76575,771.51709 128.81234,725.27469 108.85835,679.03288 98.881356,629.27465 98.881356,576 c 0,-53.27465 9.976994,-103.03288 29.930984,-149.27469 19.95341,-46.2424 47.03332,-86.4668 81.23974,-120.67323 34.20643,-34.20642 74.43083,-61.28633 120.67323,-81.23974 46.24181,-19.95399 96.00004,-29.93098 149.27469,-29.93098 53.27465,0 103.03288,9.97699 149.27469,29.93098 46.2424,19.95341 86.4668,47.03332 120.67323,81.23974 34.20642,34.20643 61.28633,74.43083 81.23974,120.67323 19.95399,46.24181 29.93098,96.00004 29.93098,149.27469 0,53.27465 -9.97699,103.03288 -29.93098,149.27469 -19.95341,46.2424 -47.03332,86.4668 -81.23974,120.67323 -34.20643,34.20642 -74.43083,61.28633 -120.67323,81.23974 C 583.03288,947.14165 533.27465,957.11864 480,957.11864 Z"
     id="path2"
     sodipodi:nodetypes="scscscscscscscscs"
     style="fill:#ca5955;fill-opacity:1;stroke-width:0.878154" />
  <path
     style="fill:#f5e1b4;fill-opacity:1;stroke-width:91.3187"
     d="m 117.93435,203.47497 56.41781,218.165 c 27.91436,36.4986 165.59404,-63.378 136.73152,-108.12595 z m 659.04655,0 -56.41781,218.165 c -27.91436,36.4986 -165.59404,-63.378 -136.73152,-108.12595 z"
     id="path1108"
     sodipodi:nodetypes="cccc"
     inkscape:path-effect="#path-effect6278"
     inkscape:original-d="m 117.93435,203.47497 56.41781,218.165 c 27.91436,36.4986 165.59404,-63.378 136.73152,-108.12595 z"
     class="UnoptimicedTransforms"
     transform="translate(32.542373,-4.0677966)" />
  <path
     style="fill:#ceecee;fill-opacity:0.699659;stroke:#3b3131;stroke-width:36;stroke-linejoin:round;stroke-dasharray:none;stroke-opacity:0.99661"
     id="rect437"
     width="211.97221"
     height="140.05399"
     x="217.40378"
     y="500.52237"
     ry="36.610168"
     inkscape:path-effect="#path-effect5931"
     class="UnoptimicedTransforms"
     d="m 254.01395,500.52237 h 138.75187 c 20.28204,0 36.61017,16.32813 36.61017,36.61017 v 66.83365 c 0,20.28203 -16.32813,36.61016 -36.61017,36.61016 H 254.01395 c -20.28204,0 -36.61017,-16.32813 -36.61017,-36.61016 v -66.83365 c 0,-20.28204 16.32813,-36.61017 36.61017,-36.61017 z m 435.70092,0 H 550.96299 c -20.28203,0 -36.61017,16.32813 -36.61017,36.61017 v 66.83365 c 0,20.28203 16.32814,36.61016 36.61017,36.61016 h 138.75188 c 20.28203,0 36.61017,-16.32813 36.61017,-36.61016 v -66.83365 c 0,-20.28204 -16.32814,-36.61017 -36.61017,-36.61017 z"
     sodipodi:type="rect"
     transform="translate(8.1355934,4.0677966)" />
  <path
     style="fill:none;stroke:#3b3131;stroke-width:30.8221;stroke-linejoin:round;stroke-dasharray:none;stroke-opacity:1"
     d="m 443.38983,560.58895 h 77.28813 z"
     id="path5201" />
</svg>
